# xmcd
#
# Track frame offsets:
#	150
#	31132
#	50110
#	72367
#	87087
#	104150
#	132132
#	149200
#	173220
#	201737
#
# Disc length: 2876 seconds
#
# Revision: 1
# Processed by: cddbd v1.5.1PL0 Copyright (c) Steve Scherf et al.
# Submitted via: CDex 1.50Beta5
#
DISCID=a10b3a0a
DTITLE=JAPAN SUPER BAND〜ALFRED REED指揮 - SUPER SAXOPHONE with SUPER BAND
DYEAR=1900
DGENRE=Classical
TTITLE0=サンバ・フィエスタ〜ティコ・ティコ〜コパカバーナ〜ブラジル
TTITLE1=踊り明かそう〜「マイ・フェア・レディ」より
TTITLE2=虹の彼方に〜「オズの魔法使い」より
TTITLE3=アヴェ・マリア
TTITLE4=歌劇「イーゴリ公」より「ダッタン人の踊り」
TTITLE5=夢
TTITLE6=熊蜂の飛行によるラプソディー
TTITLE7=ハーレム・ノクターン
TTITLE8=カルメン・セレクション〜アラゴネーズ〜ハバネラ〜前奏曲
TTITLE9=星に願いを〜「ピノキオ」より
EXTD=
EXTT0=
EXTT1=
EXTT2=
EXTT3=
EXTT4=
EXTT5=
EXTT6=
EXTT7=
EXTT8=
EXTT9=
PLAYORDER=
